<?xml version="1.0" encoding="UTF-8"?>
<svg xmlns="http://www.w3.org/2000/svg"
     width="100mm" height="80mm" viewBox="-10 -10 100 80">
  <!-- Imprimir em 100% / tamanho real. Area quadriculada: 80 x 60 mm. -->
  <rect x="-10" y="-10" width="100" height="80" fill="white"/>
  <g fill="black">
    <rect x="0"  y="0"  width="10" height="10"/>
    <rect x="20" y="0"  width="10" height="10"/>
    <rect x="40" y="0"  width="10" height="10"/>
    <rect x="60" y="0"  width="10" height="10"/>
    <rect x="10" y="10" width="10" height="10"/>
    <rect x="30" y="10" width="10" height="10"/>
    <rect x="50" y="10" width="10" height="10"/>
    <rect x="70" y="10" width="10" height="10"/>
    <rect x="0"  y="20" width="10" height="10"/>
    <rect x="20" y="20" width="10" height="10"/>
    <rect x="40" y="20" width="10" height="10"/>
    <rect x="60" y="20" width="10" height="10"/>
    <rect x="10" y="30" width="10" height="10"/>
    <rect x="30" y="30" width="10" height="10"/>
    <rect x="50" y="30" width="10" height="10"/>
    <rect x="70" y="30" width="10" height="10"/>
    <rect x="0"  y="40" width="10" height="10"/>
    <rect x="20" y="40" width="10" height="10"/>
    <rect x="40" y="40" width="10" height="10"/>
    <rect x="60" y="40" width="10" height="10"/>
    <rect x="10" y="50" width="10" height="10"/>
    <rect x="30" y="50" width="10" height="10"/>
    <rect x="50" y="50" width="10" height="10"/>
    <rect x="70" y="50" width="10" height="10"/>
  </g>
</svg>
